# This file uses centimeters as units for non-parametric coordinates.

v 0.740420 -0.284988 -0.427481
v -0.000000 -0.284988 -0.854963
v -0.740420 -0.284988 -0.427481
v -0.740419 -0.284988 0.427482
v 0.000000 -0.284988 0.854963
v 0.740420 -0.284988 0.427481
v 0.740420 0.284988 -0.427481
v -0.000000 0.284988 -0.854963
v -0.740420 0.284988 -0.427481
v -0.740419 0.284988 0.427482
v 0.000000 0.284988 0.854963
v 0.740420 0.284988 0.427481
v 0.987226 0.284988 -0.569975
v -0.000000 0.284988 -1.139950
v -0.987226 0.284988 -0.569975
v -0.987226 0.284988 0.569975
v 0.000000 0.284988 1.139950
v 0.987226 0.284988 0.569975
v 0.987226 -0.284988 -0.569975
v -0.000000 -0.284988 -1.139950
v -0.987226 -0.284988 -0.569975
v -0.987226 -0.284988 0.569975
v 0.000000 -0.284988 1.139950
v 0.987226 -0.284988 0.569975
vt 0.000000 1.000000
vt 0.166667 1.000000
vt 0.333333 1.000000
vt 0.500000 1.000000
vt 0.666667 1.000000
vt 0.833333 1.000000
vt 1.000000 1.000000
vt 0.000000 0.750000
vt 0.166667 0.750000
vt 0.333333 0.750000
vt 0.500000 0.750000
vt 0.666667 0.750000
vt 0.833333 0.750000
vt 1.000000 0.750000
vt 0.000000 0.500000
vt 0.166667 0.500000
vt 0.333333 0.500000
vt 0.500000 0.500000
vt 0.666667 0.500000
vt 0.833333 0.500000
vt 1.000000 0.500000
vt 0.000000 0.250000
vt 0.166667 0.250000
vt 0.333333 0.250000
vt 0.500000 0.250000
vt 0.666667 0.250000
vt 0.833333 0.250000
vt 1.000000 0.250000
vt 0.000000 0.000000
vt 0.166667 0.000000
vt 0.333333 0.000000
vt 0.500000 0.000000
vt 0.666667 0.000000
vt 0.833333 0.000000
vt 1.000000 0.000000
vn -0.500000 0.000000 0.866025
vn -0.500000 0.000000 0.866025
vn -0.500000 0.000000 0.866025
vn -0.500000 0.000000 0.866025
vn 0.500000 0.000000 0.866025
vn 0.500000 0.000000 0.866025
vn 0.500000 0.000000 0.866025
vn 0.500000 0.000000 0.866025
vn 1.000000 0.000000 -0.000000
vn 1.000000 0.000000 -0.000000
vn 1.000000 0.000000 -0.000000
vn 1.000000 0.000000 -0.000000
vn 0.500000 0.000000 -0.866026
vn 0.500000 0.000000 -0.866026
vn 0.500000 0.000000 -0.866026
vn 0.500000 0.000000 -0.866026
vn -0.500000 0.000000 -0.866025
vn -0.500000 0.000000 -0.866025
vn -0.500000 0.000000 -0.866025
vn -0.500000 0.000000 -0.866025
vn -1.000000 0.000000 0.000000
vn -1.000000 0.000000 0.000000
vn -1.000000 0.000000 0.000000
vn -1.000000 0.000000 0.000000
vn 0.000000 1.000000 0.000000
vn 0.000000 1.000000 0.000000
vn 0.000000 1.000000 0.000000
vn 0.000000 1.000000 0.000000
vn 0.000000 1.000000 0.000000
vn 0.000000 1.000000 0.000000
vn 0.000000 1.000000 0.000000
vn 0.000000 1.000000 0.000000
vn -0.000000 1.000000 -0.000000
vn -0.000000 1.000000 -0.000000
vn -0.000000 1.000000 -0.000000
vn -0.000000 1.000000 -0.000000
vn 0.500000 0.000000 -0.866025
vn 0.500000 0.000000 -0.866025
vn 0.500000 0.000000 -0.866025
vn 0.500000 0.000000 -0.866025
vn -0.500000 0.000000 -0.866025
vn -0.500000 0.000000 -0.866025
vn -0.500000 0.000000 -0.866025
vn -0.500000 0.000000 -0.866025
vn -1.000000 0.000000 0.000000
vn -1.000000 0.000000 0.000000
vn -1.000000 0.000000 0.000000
vn -1.000000 0.000000 0.000000
vn -0.500000 0.000000 0.866026
vn -0.500000 0.000000 0.866026
vn -0.500000 0.000000 0.866026
vn -0.500000 0.000000 0.866026
vn 0.500000 0.000000 0.866025
vn 0.500000 0.000000 0.866025
vn 0.500000 0.000000 0.866025
vn 0.500000 0.000000 0.866025
vn 1.000000 -0.000000 -0.000000
vn 1.000000 -0.000000 -0.000000
vn 1.000000 -0.000000 -0.000000
vn 1.000000 -0.000000 -0.000000
vn 0.000000 -1.000000 0.000000
vn 0.000000 -1.000000 0.000000
vn 0.000000 -1.000000 0.000000
vn 0.000000 -1.000000 0.000000
vn -0.000000 -1.000000 -0.000000
vn -0.000000 -1.000000 -0.000000
vn -0.000000 -1.000000 -0.000000
vn -0.000000 -1.000000 -0.000000
vn 0.000000 -1.000000 0.000000
vn 0.000000 -1.000000 0.000000
vn 0.000000 -1.000000 0.000000
vn 0.000000 -1.000000 0.000000
f 2/2/1 1/1/2 7/8/3 8/9/4
f 3/3/5 2/2/6 8/9/7 9/10/8
f 4/4/9 3/3/10 9/10/11 10/11/12
f 5/5/13 4/4/14 10/11/15 11/12/16
f 6/6/17 5/5/18 11/12/19 12/13/20
f 1/7/21 6/6/22 12/13/23 7/14/24
f 8/9/25 7/8/26 13/15/27 14/16/28
f 9/10/29 8/9/25 14/16/28 15/17/30
f 10/11/31 9/10/29 15/17/30 16/18/32
f 11/12/33 10/11/31 16/18/32 17/19/34
f 12/13/35 11/12/33 17/19/34 18/20/36
f 7/14/26 12/13/35 18/20/36 13/21/27
f 14/16/37 13/15/38 19/22/39 20/23/40
f 15/17/41 14/16/42 20/23/43 21/24/44
f 16/18/45 15/17/46 21/24/47 22/25/48
f 17/19/49 16/18/50 22/25/51 23/26/52
f 18/20/53 17/19/54 23/26/55 24/27/56
f 13/21/57 18/20/58 24/27/59 19/28/60
f 20/23/61 19/22/62 1/29/63 2/30/64
f 21/24/65 20/23/61 2/30/64 3/31/66
f 22/25/67 21/24/65 3/31/66 4/32/68
f 23/26/69 22/25/67 4/32/68 5/33/70
f 24/27/71 23/26/69 5/33/70 6/34/72
f 19/28/62 24/27/71 6/34/72 1/35/63
v 0.000000 -0.218901 -0.830239
v -0.719008 -0.218901 -0.415120
v -0.719008 -0.218901 0.415119
v -0.000000 -0.218901 0.830239
v 0.719008 -0.218901 0.415119
v 0.719008 -0.218901 -0.415119
v 0.000000 0.218901 -0.830239
v -0.719008 0.218901 -0.415120
v -0.719008 0.218901 0.415119
v -0.000000 0.218901 0.830239
v 0.719008 0.218901 0.415119
v 0.719008 0.218901 -0.415119
v 0.000000 -0.218901 0.000000
v 0.000000 0.218901 0.000000
vt 0.578125 0.020934
vt 0.421875 0.020934
vt 0.343750 0.156250
vt 0.421875 0.291566
vt 0.578125 0.291566
vt 0.656250 0.156250
vt 0.375000 0.312500
vt 0.416667 0.312500
vt 0.458333 0.312500
vt 0.500000 0.312500
vt 0.541667 0.312500
vt 0.583333 0.312500
vt 0.625000 0.312500
vt 0.375000 0.688440
vt 0.416667 0.688440
vt 0.458333 0.688440
vt 0.500000 0.688440
vt 0.541667 0.688440
vt 0.583333 0.688440
vt 0.625000 0.688440
vt 0.578125 0.708434
vt 0.421875 0.708434
vt 0.343750 0.843750
vt 0.421875 0.979066
vt 0.578125 0.979066
vt 0.656250 0.843750
vt 0.500000 0.150000
vt 0.500000 0.837500
vn -0.500000 0.000000 -0.866026
vn -0.500000 0.000000 -0.866026
vn -0.500000 0.000000 -0.866026
vn -0.500000 0.000000 -0.866026
vn -1.000000 0.000000 -0.000000
vn -1.000000 0.000000 -0.000000
vn -1.000000 0.000000 -0.000000
vn -1.000000 0.000000 -0.000000
vn -0.500000 0.000000 0.866025
vn -0.500000 0.000000 0.866025
vn -0.500000 0.000000 0.866025
vn -0.500000 0.000000 0.866025
vn 0.500000 0.000000 0.866025
vn 0.500000 0.000000 0.866025
vn 0.500000 0.000000 0.866025
vn 0.500000 0.000000 0.866025
vn 1.000000 0.000000 0.000000
vn 1.000000 0.000000 0.000000
vn 1.000000 0.000000 0.000000
vn 1.000000 0.000000 0.000000
vn 0.500000 0.000000 -0.866025
vn 0.500000 0.000000 -0.866025
vn 0.500000 0.000000 -0.866025
vn 0.500000 0.000000 -0.866025
vn 0.000000 -1.000000 0.000000
vn 0.000000 -1.000000 0.000000
vn -0.000000 -1.000000 -0.000000
vn 0.000000 -1.000000 0.000000
vn -0.000000 -1.000000 -0.000000
vn -0.000000 -1.000000 -0.000000
vn 0.000000 -1.000000 0.000000
vn 0.000000 1.000000 0.000000
vn -0.000000 1.000000 -0.000000
vn 0.000000 1.000000 0.000000
vn -0.000000 1.000000 -0.000000
vn 0.000000 1.000000 0.000000
vn 0.000000 1.000000 0.000000
vn 0.000000 1.000000 0.000000
f 25/42/73 26/43/74 32/50/75 31/49/76
f 26/43/77 27/44/78 33/51/79 32/50/80
f 27/44/81 28/45/82 34/52/83 33/51/84
f 28/45/85 29/46/86 35/53/87 34/52/88
f 29/46/89 30/47/90 36/54/91 35/53/92
f 30/47/93 25/48/94 31/55/95 36/54/96
f 26/37/97 25/36/98 37/62/99
f 27/38/100 26/37/97 37/62/99
f 28/39/101 27/38/100 37/62/99
f 29/40/102 28/39/101 37/62/99
f 30/41/103 29/40/102 37/62/99
f 25/36/98 30/41/103 37/62/99
f 31/60/104 32/59/105 38/63/106
f 32/59/105 33/58/107 38/63/106
f 33/58/107 34/57/108 38/63/106
f 34/57/108 35/56/109 38/63/106
f 35/56/109 36/61/110 38/63/106
f 36/61/110 31/60/104 38/63/106
