# This file uses centimeters as units for non-parametric coordinates.

mtllib Simple Barracks.mtl
g default
v 0.351556 0.000000 0.710425
v 0.351556 0.659323 0.710425
v 0.351556 0.659323 -0.717419
v 0.351556 0.000000 -0.717419
v -0.005405 0.994191 0.710425
v -0.005405 0.994191 -0.717419
v -0.005405 0.000000 -0.717419
v -0.005405 0.000000 0.710425
v 0.547519 0.396955 0.710425
v 0.547519 0.396955 -0.717419
v -0.362365 0.000000 0.710425
v -0.362365 0.000000 -0.717419
v -0.362365 0.659323 -0.717419
v -0.362365 0.659323 0.710425
v -0.558328 0.396955 -0.717419
v -0.558328 0.396955 0.710425
v -0.005405 0.497095 -0.717419
v -0.362365 0.329661 -0.717419
v -0.362365 0.329661 0.710425
v -0.005405 0.497095 0.710425
v 0.351556 0.329661 0.710425
v 0.351556 0.329661 -0.717419
v -0.122670 0.442091 -0.717419
v -0.122670 0.884183 -0.717419
v -0.122670 0.884183 0.710425
v -0.122670 0.442091 0.710425
v -0.122670 0.000000 0.710425
v -0.122670 0.000000 -0.717419
v 0.109210 0.443335 -0.717419
v 0.109210 0.886670 -0.717419
v 0.109210 0.886670 0.710425
v 0.109210 0.443335 0.710425
v 0.109210 0.000000 0.710425
v 0.109210 0.000000 -0.717419
vt 0.625000 0.000000
vt 0.625000 0.250000
vt 0.625000 0.500000
vt 0.625000 0.750000
vt 0.625000 1.000000
vt 0.875000 0.000000
vt 0.875000 0.250000
vt 0.500000 0.250000
vt 0.500000 0.500000
vt 0.500000 0.750000
vt 0.500000 0.000000
vt 0.500000 1.000000
vt 0.000000 0.000000
vt 1.000000 0.000000
vt 1.000000 1.000000
vt 0.000000 1.000000
vt 0.625000 0.000000
vt 0.875000 0.000000
vt 0.875000 0.250000
vt 0.625000 0.250000
vt 0.500000 0.250000
vt 0.625000 0.500000
vt 0.500000 0.500000
vt 0.500000 0.750000
vt 0.625000 0.750000
vt 0.500000 1.000000
vt 0.625000 1.000000
vt 0.500000 0.000000
vt 0.000000 0.000000
vt 1.000000 0.000000
vt 1.000000 1.000000
vt 0.000000 1.000000
vt 0.500000 0.625000
vt 0.500000 0.625000
vt 0.875000 0.125000
vt 0.625000 0.625000
vt 0.625000 0.125000
vt 0.500000 0.125000
vt 0.500000 0.125000
vt 0.625000 0.125000
vt 0.625000 0.625000
vt 0.875000 0.125000
vt 0.541064 0.625000
vt 0.541064 0.500000
vt 0.541064 0.250000
vt 0.541064 0.125000
vt 0.541064 1.000000
vt 0.541064 0.000000
vt 0.541064 0.750000
vt 0.540135 0.625000
vt 0.540135 0.500000
vt 0.540135 0.250000
vt 0.540135 0.125000
vt 0.540135 0.000000
vt 0.540135 1.000000
vt 0.540135 0.750000
vn 1.000000 0.000000 0.000000
vn 1.000000 0.000000 0.000000
vn 1.000000 0.000000 0.000000
vn 1.000000 0.000000 0.000000
vn 0.684177 0.729316 0.000000
vn 0.684177 0.729316 0.000000
vn 0.684177 0.729316 0.000000
vn 0.684177 0.729316 0.000000
vn 0.000000 0.000000 -1.000000
vn -0.000000 0.000000 -1.000000
vn -0.000000 0.000000 -1.000000
vn -0.000000 0.000000 -1.000000
vn 0.000000 -1.000000 0.000000
vn 0.000000 -1.000000 0.000000
vn 0.000000 -1.000000 0.000000
vn 0.000000 -1.000000 0.000000
vn 0.000000 0.000000 1.000000
vn -0.000000 0.000000 1.000000
vn 0.000000 0.000000 1.000000
vn -0.000000 0.000000 1.000000
vn -0.801190 -0.598410 0.000000
vn -0.801190 -0.598410 0.000000
vn -0.801190 -0.598410 0.000000
vn -0.801190 -0.598410 0.000000
vn -1.000000 0.000000 0.000000
vn -1.000000 0.000000 0.000000
vn -1.000000 0.000000 0.000000
vn -1.000000 0.000000 0.000000
vn -0.684177 0.729316 0.000000
vn -0.684177 0.729316 0.000000
vn -0.684177 0.729316 0.000000
vn -0.684177 0.729316 0.000000
vn 0.000000 0.000000 -1.000000
vn -0.000000 0.000000 -1.000000
vn 0.000000 0.000000 -1.000000
vn 0.000000 0.000000 -1.000000
vn 0.000000 -1.000000 0.000000
vn 0.000000 -1.000000 0.000000
vn 0.000000 -1.000000 0.000000
vn 0.000000 -1.000000 0.000000
vn -0.000001 0.000000 1.000000
vn -0.000000 0.000000 1.000000
vn -0.000000 0.000000 1.000000
vn -0.000000 0.000000 1.000000
vn 0.801190 -0.598410 0.000000
vn 0.801190 -0.598410 0.000000
vn 0.801190 -0.598410 0.000000
vn 0.801190 -0.598410 0.000000
vn -1.000000 0.000000 0.000000
vn -1.000000 0.000000 0.000000
vn 0.000000 0.000000 1.000000
vn 0.000000 0.000000 1.000000
vn 0.000000 0.000000 1.000000
vn 0.000000 0.000000 1.000000
vn 1.000000 0.000000 0.000000
vn 1.000000 0.000000 0.000000
vn 0.000000 0.000000 -1.000000
vn 0.000000 0.000000 -1.000000
vn -0.000000 0.000000 -1.000000
vn 0.000000 0.000000 -1.000000
vn -0.684177 0.729316 0.000000
vn -0.684177 0.729316 0.000000
vn 0.000000 0.000000 1.000000
vn 0.000000 0.000000 1.000000
vn 0.000000 0.000000 1.000000
vn 0.000000 -1.000000 0.000000
vn 0.000000 -1.000000 0.000000
vn -0.000000 0.000000 -1.000000
vn -0.000000 0.000000 -1.000000
vn 0.000000 0.000000 -1.000000
vn 0.000000 0.000000 -1.000000
vn 0.684177 0.729316 0.000000
vn 0.684177 0.729316 0.000000
vn 0.000000 0.000000 1.000000
vn 0.000000 0.000000 1.000000
vn 0.000000 0.000000 1.000000
vn 0.000000 -1.000000 0.000000
vn 0.000000 -1.000000 0.000000
s 1
g pCube1
usemtl initialShadingGroup
f 21/40/1 22/42/2 3/7/3 2/2/4
s 2
f 31/52/5 2/2/6 3/3/7 30/51/8
s 3
f 22/41/9 29/50/10 30/51/11 3/3/12
s 4
f 33/55/13 34/56/14 4/4/15 1/5/16
s 5
f 31/52/17 32/53/18 21/40/19 2/2/20
s off
f 2/13/21 3/14/22 10/15/23 9/16/24
s 6
f 19/37/25 14/20/26 13/19/27 18/35/28
s 7
f 5/21/29 6/23/30 24/44/31 25/45/32
s 8
f 17/33/33 23/43/34 24/44/35 6/23/36
s 9
f 8/26/37 27/47/38 28/49/39 7/24/40
s 10
f 5/21/41 25/45/42 26/46/43 20/38/44
s off
f 14/29/45 16/32/46 15/31/47 13/30/48
s 6
f 11/17/49 19/37/25 18/35/28 12/18/50
s 10
f 20/38/44 26/46/43 27/48/51 8/28/52
s 5
f 21/40/19 32/53/18 33/54/53 1/1/54
s 1
f 1/1/55 4/6/56 22/42/2 21/40/1
s 3
f 34/56/57 29/50/10 22/41/9 4/4/58
s 8
f 23/43/34 18/36/59 13/22/60 24/44/35
s 7
f 25/45/32 24/44/31 13/22/61 14/20/62
s 10
f 26/46/43 25/45/42 14/20/63 19/37/64
f 27/48/51 26/46/43 19/37/64 11/17/65
s 9
f 28/49/39 27/47/38 11/27/66 12/25/67
s 8
f 23/43/34 28/49/68 12/25/69 18/36/59
s 3
f 29/50/10 17/34/70 6/9/71 30/51/11
s 2
f 5/8/72 31/52/5 30/51/8 6/9/73
s 5
f 5/8/74 20/39/75 32/53/18 31/52/17
f 33/54/53 32/53/18 20/39/75 8/11/76
s 4
f 8/12/77 7/10/78 34/56/14 33/55/13
